<svg width="16" height="17" viewBox="0 0 16 17" fill="none" xmlns="http://www.w3.org/2000/svg">
<g clip-path="url(#clip0_1357_1296)">
<path d="M0.5 8.33333H2.83333C3.0308 8.33339 3.22386 8.27498 3.38817 8.16548C3.55249 8.05597 3.68071 7.90027 3.75667 7.718L5.49 3.64133C5.52959 3.54819 5.59651 3.46925 5.68193 3.41495C5.76734 3.36066 5.86722 3.33356 5.96836 3.33725C6.06951 3.34093 6.16715 3.37522 6.24839 3.43559C6.32962 3.49596 6.39063 3.57955 6.42333 3.67533L9.57933 13.492C9.61204 13.5878 9.67304 13.6714 9.75428 13.7317C9.83552 13.7921 9.93316 13.8264 10.0343 13.8301C10.1354 13.8338 10.2353 13.8067 10.3207 13.7524C10.4062 13.6981 10.4731 13.6191 10.5127 13.526L12.2427 8.94867C12.3186 8.7664 12.4468 8.6107 12.6112 8.50119C12.7755 8.39169 12.9685 8.33328 13.166 8.33333H15.4993" stroke="#793FF3" stroke-width="1.5" stroke-linecap="round" stroke-linejoin="round"/>
</g>
<defs>
<clipPath id="clip0_1357_1296">
<rect width="16" height="16" fill="white" transform="translate(0 0.5)"/>
</clipPath>
</defs>
</svg>
