<svg width="16" height="16" viewBox="0 0 16 16" fill="none" xmlns="http://www.w3.org/2000/svg">
<path fill-rule="evenodd" clip-rule="evenodd" d="M6.73728 1.79846C7.465 1.1783 8.53533 1.1783 9.26305 1.79846L10.077 2.49213C10.1753 2.57589 10.2975 2.62651 10.4263 2.63679L11.4923 2.72186C12.4454 2.79792 13.2023 3.55475 13.2783 4.50785L13.3634 5.57391C13.3737 5.70264 13.4243 5.82486 13.508 5.92315L14.2017 6.73713C14.8219 7.46485 14.8219 8.53517 14.2017 9.26289L13.508 10.0769C13.4243 10.1752 13.3737 10.2974 13.3634 10.4261L13.2783 11.4922C13.2023 12.4453 12.4454 13.2021 11.4923 13.2782L10.4263 13.3632C10.2975 13.3735 10.1753 13.4241 10.077 13.5079L9.26305 14.2016C8.53533 14.8217 7.465 14.8217 6.73728 14.2016L5.9233 13.5079C5.82501 13.4241 5.7028 13.3735 5.57406 13.3632L4.508 13.2782C3.5549 13.2021 2.79807 12.4453 2.72201 11.4922L2.63694 10.4261C2.62667 10.2974 2.57605 10.1752 2.49228 10.0769L1.79862 9.26289C1.17846 8.53517 1.17846 7.46485 1.79861 6.73713L2.49228 5.92315C2.57605 5.82486 2.62667 5.70265 2.63694 5.57391L2.72201 4.50785C2.79807 3.55475 3.55491 2.79792 4.508 2.72186L5.57406 2.63679C5.7028 2.62651 5.82501 2.57589 5.9233 2.49213L6.73728 1.79846Z" fill="#0679FF"/>
<path fill-rule="evenodd" clip-rule="evenodd" d="M10.4716 6.19526C10.7319 6.45561 10.7319 6.87772 10.4716 7.13807L7.8049 9.80474C7.54455 10.0651 7.12244 10.0651 6.86209 9.80474L5.52876 8.4714C5.26841 8.21106 5.26841 7.78895 5.52876 7.5286C5.78911 7.26825 6.21122 7.26825 6.47157 7.5286L7.3335 8.39052L9.52876 6.19526C9.78911 5.93491 10.2112 5.93491 10.4716 6.19526Z" fill="white"/>
</svg>
